# xmcd
#
# Track frame offsets: 
#        150
#        14466
#        28452
#        42866
#        61840
#        77885
#        89718
#        103605
#        117458
#        130538
#        142903
#        159997
#        182481
#        197543
#        209759
#        231359
#        249063
#        265403
#        279994
#        293020
#        303138
#
# Disc length: 4222 seconds
#
# Revision: 0
# Processed by: cddbd v1.5.2PL0 Copyright (c) Steve Scherf et al.
# Submitted via: ExactAudioCopy v1.1
#
DISCID=24107c15
DTITLE=Various Artist - Mweieihhh! - CD 2
DYEAR=2019
DGENRE=Pop-Folk
TTITLE0=Dimitri Vegas and Like Mike, Armin Van Buuren and W&W - Repeat Aft
TTITLE0=er Me
TTITLE1=Schorre Chef and MC Vals - Wie Laait Me Op
TTITLE2=Mo-Do - Eins, Zwei, Polizei
TTITLE3=Donnie - De Tuinslang
TTITLE4=DJ Maurice Feat. De Alpenzusjes M.m.v. Eric Dikeb - Volg De Le
TTITLE4=raar
TTITLE5=Het Feestteam and DJ Maurice - Shirt Uit and Zwaaien
TTITLE6=Gebroeders Ko - Schatje, Mag Ik Je Foto (Dr. Rude and 2nd Bass R
TTITLE6=adio Remix)
TTITLE7=Party Animals - Have You Ever Been Mellow
TTITLE8=PartyFriex Feat. Schorre Chef - Ik Moet Zuipen! (Hardstyle Rem
TTITLE8=ix)
TTITLE9=Sandro Silva and Quintino - Epic
TTITLE10=Zware Jongens - Stil Aan De Overkant!
TTITLE11=DJ F.R.A.N.K. - From The Left To The Right
TTITLE12=Parla and Pardoux - Liberté (Bonte Carlo Remix)
TTITLE13=Jebroer - Polizei
TTITLE14=Evil Activities - Nobody Said It Was Easy
TTITLE15=D-Block and S-Te-Fan and Sub Zero Project - Darkest Hour (The Clo
TTITLE15=ck)
TTITLE16=Lawineboys and DJ Jerome - Sex Met Die Kale
TTITLE17=Snollebollekes Feat. Coen and Sander - Feest Waarvan Ik Morgen 
TTITLE17=Niks Meer Weet
TTITLE18=Outsiders and The Partysquad Feat. Donnie - Leven Voor De Rave
TTITLE19=Mental Theo and Zany Feat. Partyfriex - Naar De Klote (Karnaval
TTITLE19=Festival Anthem)
TTITLE20=Feest DJ Lucki Luc - De Mweieihhh! Song
EXTD=
EXTT0=
EXTT1=
EXTT2=
EXTT3=
EXTT4=
EXTT5=
EXTT6=
EXTT7=
EXTT8=
EXTT9=
EXTT10=
EXTT11=
EXTT12=
EXTT13=
EXTT14=
EXTT15=
EXTT16=
EXTT17=
EXTT18=
EXTT19=
EXTT20=
PLAYORDER=
